<?xml version="1.0" encoding="utf-8"?>
<svg xmlns="http://www.w3.org/2000/svg" height="48" width="48" viewBox="0 0 48 48">
  <g>
    <path id="path1" transform="rotate(0,24,24) translate(11,13.0312492251396) scale(0.8125,0.8125)  " fill="#000000" d="M22.800018,10.899996L26.700012,10.899996 26.700012,14.799998 22.800018,14.799998z M16.899994,10.899996L20.800018,10.899996 20.800018,14.799998 16.899994,14.799998z M10.899994,10.899996L14.800018,10.899996 14.800018,14.799998 10.899994,14.799998z M5,10.899996L8.8999939,10.899996 8.8999939,14.799998 5,14.799998z M22.800018,5.1000016L26.700012,5.1000016 26.700012,9.0000021 22.800018,9.0000021z M16.899994,5.1000016L20.800018,5.1000016 20.800018,9.0000021 16.899994,9.0000021z M10.899994,5.1000016L14.800018,5.1000016 14.800018,9.0000021 10.899994,9.0000021z M5,5.1000016L8.8999939,5.1000016 8.8999939,9.0000021 5,9.0000021z M2,2.1000018L2,17.899995 29.899994,17.899995 29.899994,2.1000018z M0,0L32,0 32,20.000001 18,20.000001 18,23.500001 18.200012,23.500001C27.100006,23.699998 25.399994,27.000001 25.399994,27.000001 24.200012,26.799997 19.800018,26.699998 19.800018,26.699998L19.800018,26.000001 12.200012,26.000001 12,27.000001 6.5,27.000001C4.5,24.399995,11.200012,23.699998,13.899994,23.6L14,23.6 14,20.000001 0,20.000001z" />
  </g>
</svg>