<?xml version="1.0" encoding="utf-8"?>
<svg xmlns="http://www.w3.org/2000/svg" height="48" width="48" viewBox="0 0 48 48">
  <g>
    <path id="path1" transform="rotate(0,24,24) translate(11.9185138359484,11) scale(0.812474430412098,0.812474430412098)  " fill="#000000" d="M10.787992,14.287977L10.787992,20.410987 5.2469957,20.410987 14.869989,29.232001 24.491982,20.410987 18.951986,20.410987 18.951986,14.287977z M8.7469937,12.246974L20.992985,12.246974 20.992985,18.369984 29.739979,18.369984 14.869989,32.001006 0,18.369984 8.7469937,18.369984z M8.7460009,8.1650219L20.991999,8.1650219 20.991999,10.206006 8.7460009,10.206006z M8.745998,4.0820614L20.991998,4.0820614 20.991998,6.1230614 8.745998,6.1230614z M8.7460009,0L20.991999,0 20.991999,2.0409844 8.7460009,2.0409844z" />
  </g>
</svg>