<?xml version="1.0" encoding="utf-8"?>
<svg xmlns="http://www.w3.org/2000/svg" height="48" width="48" viewBox="0 0 48 48">
  <g>
    <path id="path1" transform="rotate(0,24,24) translate(11,11.0000054240207) scale(0.812499709427461,0.812499709427461)  " fill="#000000" d="M14,25.999999L14,29.999999 18,29.999999 18,25.999999z M2,25.999999L2,29.999999 6,29.999999 6,25.999999z M26.00001,25.99995L26.00001,29.99995 30.00001,29.99995 30.00001,25.99995z M12,23.999999L20,23.999999 20,31.999999 12,31.999999z M0,23.999999L8,23.999999 8,31.999999 0,31.999999z M24.00001,23.99995L32.00001,23.99995 32.00001,31.99995 24.00001,31.99995z M26,13.999999L26,17.999999 30,17.999999 30,13.999999z M14,13.999999L14,17.999999 18,17.999999 18,13.999999z M2,13.999999L2,17.999999 6,17.999999 6,13.999999z M24,11.999999L32,11.999999 32,19.999999 24,19.999999z M12,11.999999L20,11.999999 20,19.999999 12,19.999999z M0,11.999999L8,11.999999 8,19.999999 0,19.999999z M26,2L26,6 30,6 30,2z M14,2L14,6 18,6 18,2z M2,2L2,6 6,6 6,2z M24,0L32,0 32,7.999999 24,7.999999z M12,0L20,0 20,7.999999 12,7.999999z M0,0L8,0 8,7.999999 0,7.999999z" />
  </g>
</svg>