<?xml version="1.0" encoding="utf-8"?>
<svg xmlns="http://www.w3.org/2000/svg" height="48" width="48" viewBox="0 0 48 48">
  <g>
    <path id="path1" transform="rotate(0,24,24) translate(11.2063717142038,11) scale(0.812500193715142,0.812500193715142)  " fill="#000000" d="M13.339003,14.142073L19.356993,14.142073 19.356993,14.743073C19.255995,15.04407 19.055998,15.345081 18.854994,15.646078 18.654997,16.047082 18.453993,16.448085 18.152998,16.950086 17.953001,17.451096 17.651991,17.953097 17.451002,18.454091 17.249998,18.956109 16.949995,19.558101 16.748991,20.159118 16.548002,20.761111 16.348005,21.363103 16.247999,21.864114 16.046995,22.466105 15.947004,23.068129 15.947004,23.569108L14.742994,23.569108C14.843,22.968123 14.943998,22.466105 15.143995,21.864114 15.344999,21.263097 15.544996,20.661103 15.746,20.159118 15.947004,19.558101 16.147001,19.056085 16.447996,18.555106 16.748991,18.053088 16.949995,17.552094 17.149992,17.050092L17.751997,15.847083C17.953001,15.546087,18.052992,15.245075,18.152998,15.04407L13.339003,15.04407z M3.7109983,10.63206L3.7109983,28.08314 28.48399,28.08314 28.48399,10.63206z M2.6069947,1.9060159L5.2149959,1.9060159 5.2149959,7.0210328 12.236006,7.0210328 12.236006,1.9060159 19.255995,1.9060159 19.255995,7.0210328 26.276989,7.0210328 26.276989,1.9060159 28.884991,1.9060159C30.389004,1.9060158,31.492001,3.1090099,31.492001,4.5130243L31.492001,29.386155C31.492001,30.891168,30.288998,31.994172,28.884991,31.994172L2.6069947,31.994172C1.2030028,32.094178,2.6070666E-08,30.891168,0,29.48714L0,4.6140227C2.6070666E-08,3.1090099,1.2030028,1.9060158,2.6069947,1.9060159z M23.067991,0C23.969999,0,24.772991,0.80200619,24.772991,1.7050105L24.772991,5.3160223 21.363005,5.3160223 21.363005,1.7050105C21.363005,0.80200619,22.065001,0,23.067991,0z M8.9259939,0C9.8289938,0,10.630996,0.80200619,10.630996,1.7050105L10.630996,5.3160223 7.2209921,5.3160223 7.2209921,1.7050105C7.2209921,0.80200619,7.9230032,0,8.9259939,0z" />
  </g>
</svg>