<?xml version="1.0" encoding="utf-8"?>
<svg xmlns="http://www.w3.org/2000/svg" height="48" width="48" viewBox="0 0 48 48">
  <g>
    <path id="path1" transform="rotate(0,24,24) translate(11,12.2065629959106) scale(0.8125,0.8125)  " fill="#000000" d="M24.000019,17.477003C24.275999,17.477003,24.499983,17.701003,24.499983,17.977003L24.499983,20.823 27.299778,23.621996C27.494762,23.817997 27.494762,24.133995 27.299778,24.329996 27.201784,24.426996 27.073793,24.475996 26.945803,24.475996 26.817812,24.475996 26.689821,24.426996 26.591829,24.329996L23.500055,21.237 23.500055,17.977003C23.500055,17.701003,23.72304,17.477003,24.000019,17.477003z M24,15.03C20.691,15.03 18,17.721 18,21.029999 18,24.338999 20.691,27.029999 24,27.029999 27.309,27.029999 30,24.338999 30,21.029999 30,17.721 27.309,15.03 24,15.03z M2.0000001,10L2.0000001,24 16.574047,24 16.486254,23.777752C16.17174,22.920477 16,21.994905 16,21.029999 16,16.963609 19.050125,13.595798 22.982542,13.094397L23,13.092395 23,10z M2.0000001,4.0000005L2.0000001,8 23,8 23,4.0000005 19,4.0000005 19,6 17,6 17,4.0000005 8.0000001,4.0000005 8.0000001,6 6.0000001,6 6.0000001,4.0000005z M6.0000001,0L8.0000001,0 8.0000001,2 17,2 17,0 19,0 19,2 25,2 25,13.092395 25.017458,13.094397C28.949875,13.595798 32,16.963609 32,21.029999 32,25.441 28.410999,29.029999 24,29.029999 21.518812,29.029999 19.29771,27.894417 17.829163,26.115721L17.738174,26 0,26 0,2 6.0000001,2z" />
  </g>
</svg>