<?xml version="1.0" encoding="utf-8"?>
<svg xmlns="http://www.w3.org/2000/svg" height="48" width="48" viewBox="0 0 48 48">
  <g>
    <path id="path1" transform="rotate(0,24,24) translate(11.8904989957809,11) scale(0.8125,0.8125)  " fill="#000000" d="M21.083997,18.758011L21.779981,18.758011 21.779981,22.811005C22.089002,22.953003 22.302991,23.26001 22.302991,23.623001 22.302991,23.729004 22.279981,23.832001 22.247022,23.929001L24.430984,25.66301 23.998,26.207001 21.773999,24.44101C21.662,24.492004 21.534009,24.524002 21.404004,24.524002 20.909009,24.524002 20.507032,24.122009 20.507032,23.624008 20.507032,23.24501 20.747022,22.917999 21.083997,22.792007z M21.432019,17.46701C18.034007,17.46701 15.271005,20.227005 15.271005,23.623001 15.271005,27.020996 18.034984,29.783005 21.432019,29.783005 24.82698,29.783005 27.589006,27.020996 27.589006,23.623001 27.589006,20.227005 24.828994,17.46701 21.432019,17.46701z M21.432019,15.25C26.047988,15.25 29.805988,19.009003 29.808002,23.623001 29.808002,28.242996 26.049026,32 21.432019,32 16.812022,32 13.057991,28.246002 13.057991,23.623001 13.057991,19.008011 16.812022,15.25 21.432019,15.25z M0,2.9519958L5.1069976,2.9519958 5.1069976,6.4790039 9.3549863,6.4790039 9.3549863,2.9519958 18.748973,2.9519958 18.748973,6.4790039 23.002029,6.4790039 23.002029,2.9519958 28.034013,2.9519958 28.034013,16.313004C27.29799,15.64801,26.464006,15.093002,25.554031,14.669998L25.554031,10.888 2.4810194,10.888 2.4810194,27.173996 10.661017,27.173996 10.66297,27.173996 12.232978,27.173996C12.583016,28.074005,13.055977,28.903,13.635994,29.651001L0,29.651001z M19.992017,0L21.765027,0 21.765027,5.2360077 19.992017,5.2360077z M6.3449742,0L8.1149952,0 8.1149952,5.2360077 6.3449742,5.2360077z" />
  </g>
</svg>