<?xml version="1.0" encoding="utf-8"?>
<svg xmlns="http://www.w3.org/2000/svg" height="48" width="48" viewBox="0 0 48 48">
  <g>
    <path id="path1" transform="rotate(0,24,24) translate(13.7218785352997,11) scale(0.812499806284951,0.812499806284951)  " fill="#000000" d="M12.799999,17.900004C14.099998,17.900004 15.099998,18.900004 15.099998,20.200004 15.099998,21.500005 14.099998,22.500005 12.799999,22.500005 11.499999,22.500005 10.499999,21.500005 10.499999,20.200004 10.499999,18.900004 11.499999,17.900004 12.799999,17.900004z M18.299998,2.0000005L15.599998,10.700002 15.399998,10.600003C14.499999,10.400003 13.599999,10.200002 12.699998,10.200002 7.1999992,10.200002 2.6999998,14.700003 2.6999996,20.200004 2.6999998,25.700006 7.1999992,30.200008 12.699998,30.200008 18.199998,30.200008 22.699996,25.700006 22.699996,20.200004 22.699996,16.600004 20.799998,13.400003 17.899998,11.600003L17.699998,11.500003 23.399997,5.1000016z M0,0L25.299997,0 25.299997,32.000007 0,32.000007z" />
  </g>
</svg>