<?xml version="1.0" encoding="utf-8"?>
<svg xmlns="http://www.w3.org/2000/svg" height="48" width="48" viewBox="0 0 48 48">
  <g>
    <path id="path1" transform="rotate(0,24,24) translate(14.3174376487732,11) scale(0.8125,0.8125)  " fill="#000000" d="M11.918032,18.540007C10.815031,18.540007 9.9180317,19.437006 9.9180317,20.540007 9.9180317,21.643007 10.815031,22.540007 11.918032,22.540007 13.021031,22.540007 13.918032,21.643007 13.918032,20.540007 13.918032,19.437006 13.021031,18.540007 11.918032,18.540007z M11.918032,17.540007C13.572031,17.540007 14.918032,18.886007 14.918032,20.540007 14.918032,22.194006 13.572031,23.540007 11.918032,23.540007 10.264031,23.540007 8.9180317,22.194006 8.9180317,20.540007 8.9180317,18.886007 10.264031,17.540007 11.918032,17.540007z M11.918032,12.006998C12.281032,12.006998 12.646032,12.029998 13.000032,12.073997 13.273033,12.109998 13.468034,12.359998 13.433033,12.633998 13.397034,12.907998 13.138033,13.095998 12.873033,13.066998 12.561032,13.026999 12.241032,13.006998 11.918032,13.006998 7.7640262,13.006998 4.3850222,16.386 4.3850222,20.540001 4.3850222,24.694002 7.7640262,28.073004 11.918032,28.073004 16.072036,28.073004 19.451041,24.694002 19.451041,20.540001 19.451041,17.709999 17.889039,15.143999 15.373035,13.843999 15.128036,13.716998 15.031035,13.414998 15.158035,13.169998 15.286036,12.922998 15.589036,12.830998 15.832036,12.954998 18.68204,14.427999 20.451041,17.334 20.451041,20.540001 20.451041,25.245003 16.623036,29.073004 11.918032,29.073004 7.2130256,29.073004 3.385021,25.245003 3.3850207,20.540001 3.385021,15.834999 7.2130256,12.006998 11.918032,12.006998z M16.497003,5.0240541C16.546391,5.0232878 16.596885,5.0299091 16.647132,5.0447221 16.912118,5.1217241 17.06511,5.3987308 16.988114,5.6637373L13.933269,16.169991C13.870273,16.387997 13.670283,16.529999 13.453294,16.529999 13.407296,16.529999 13.360299,16.524 13.313301,16.509998 13.049314,16.432997 12.895322,16.154991 12.973318,15.889984L16.027164,5.3847303C16.089723,5.1694126,16.282987,5.0273738,16.497003,5.0240541z M2.7669997,2C2.3439956,2,2.0000012,2.3439941,2.000001,2.7660065L2.000001,29.233994C2.0000012,29.656006,2.3439956,30,2.7669997,30L21.068006,30C21.49101,30,21.833997,29.656006,21.833997,29.233994L21.833997,2.7660065C21.833997,2.3439941,21.49101,2,21.068006,2z M2.7669997,0L21.068006,0C22.593001,0,23.833999,1.2409973,23.833999,2.7660065L23.833999,29.233994C23.833999,30.759003,22.593001,32,21.068006,32L2.7669997,32C1.2419746,32,1.7007551E-08,30.759003,0,29.233994L0,2.7660065C1.7007551E-08,1.2409973,1.2419746,0,2.7669997,0z" />
  </g>
</svg>