<?xml version="1.0" encoding="utf-8"?>
<svg xmlns="http://www.w3.org/2000/svg" height="48" width="48" viewBox="0 0 48 48">
  <g>
    <path id="path1" transform="rotate(0,24,24) translate(12.6400315203372,11) scale(0.8125,0.8125)  " fill="#000000" d="M20.274001,10.542006L21.570001,12.055005 11.479,20.674995 7.5810001,15.146002 9.207,13.998003 11.849,17.740999z M13.866527,2.2019958C10.048523,6.8069916 4.1854995,8.7969971 2.1014939,9.3860016 1.776496,12.313995 1.3194939,24.153 13.981532,29.865997 26.234559,24.259995 26.195571,13.018005 25.890563,9.673996 25.876571,9.5139923 25.767562,9.3919983 25.60057,9.348999 24.861568,9.1640015 18.342538,7.4129944 13.866527,2.2019958z M13.845531,0L13.86053,0C14.351528,0 14.821532,0.23100281 15.152541,0.63600159 19.22755,5.5890045 25.396558,7.2460022 26.085571,7.4169922 27.079562,7.6679993 27.781575,8.4810028 27.874578,9.4909973 28.215568,13.209 28.254569,25.806 14.485532,31.820999L14.078533,32 13.569529,31.863998C-1.1805132,25.416992 -0.19151202,11.595993 0.15449728,8.8899994 0.23849713,8.2339935 0.70448663,7.6990051 1.3444878,7.5279999 2.5705045,7.197998 8.8755152,5.3159943 12.549522,0.66299438 12.876534,0.24699402 13.349527,0.0059967041 13.845531,0z" />
  </g>
</svg>