<?xml version="1.0" encoding="utf-8"?>
<svg xmlns="http://www.w3.org/2000/svg" height="48" width="48" viewBox="0 0 48 48">
  <g>
    <path id="path1" transform="rotate(0,24,24) translate(11,12.0895629621942) scale(0.812499999339948,0.812499999339948)  " fill="#000000" d="M14.889141,3.7019964L14.889141,5.4030162 29.098032,8.3049942 29.098032,6.6040054z M11.987155,0L32.000001,4.1029974 32.000001,24.515021C32.000001,26.817023 28.898021,29.317999 23.995058,29.317999 19.091104,29.317999 15.99013,26.617011 17.490118,22.814 18.591108,20.013005 26.296051,19.112004 29.198022,21.814L29.198022,11.606997 14.889141,8.6050125 14.889141,20.813023C14.889141,23.114018 11.787159,25.616004 6.8841964,25.616004 1.9812339,25.616004 -1.1207474,22.914006 0.38024814,19.112004 1.4802306,16.310002 9.1851736,15.410007 12.08716,18.110997z" />
  </g>
</svg>