<?xml version="1.0" encoding="utf-8"?>
<svg xmlns="http://www.w3.org/2000/svg" height="48" width="48" viewBox="0 0 48 48">
  <g>
    <path id="path1" transform="rotate(0,24,24) translate(11,11.3412384594225) scale(0.812500048428777,0.812500048428777)  " fill="#000000" d="M0.16399956,5.5480051L18.257999,5.5480051C18.25,5.6910052 18.237,5.8330054 18.237,5.9770055 18.237,8.2980075 19.330999,10.365009 21.026999,11.70101L16.24,17.264015 16.24,31.160027 10.519,27.891024 10.519,16.992015z M0.63499928,1.9950018L19.533999,1.9950018C19.131999,2.6070027,18.823999,3.2840033,18.621,4.004004L0.63499928,4.004004C0.28399944,4.004004,0,3.7200036,0,3.3700032L0,2.6300025C0,2.2790022,0.28399944,1.9950018,0.63499928,1.9950018z M26.483,0.84700108L22.556999,4.7720046 22.585999,4.8000045 24.011,4.8000045 25.959,2.8520026 25.959,9.8730089 27.006,9.8730089 27.006,2.8520026 28.954999,4.8000045 30.381,4.8000045 30.408999,4.7720046 27.224,1.5870018z M26.513,0C29.541999,0 31.999999,2.4840026 31.999999,5.5480051 31.999999,8.6110077 29.541999,11.09501 26.513,11.09501 23.483999,11.09501 21.026999,8.6110077 21.026999,5.5480051 21.026999,2.4840026 23.483999,0 26.513,0z" />
  </g>
</svg>