<?xml version="1.0" encoding="utf-8"?>
<svg xmlns="http://www.w3.org/2000/svg" height="48" width="48" viewBox="0 0 48 48">
  <g>
    <path id="path1" transform="rotate(0,24,24) translate(11,11.3412500619888) scale(0.8125,0.8125)  " fill="#000000" d="M0.16400146,5.5479784L18.257996,5.5479784C18.25,5.6909837 18.237,5.832982 18.237,5.976995 18.237,8.2979803 19.330994,10.364999 21.026978,11.700998L16.23999,17.263992 16.23999,31.16 10.518982,27.891014 10.518982,16.991987z M0.63494873,1.9949965L19.533997,1.9949965C19.131958,2.6069967,18.823975,3.2839994,18.620972,4.0040011L0.63494873,4.0040011C0.28399658,4.0040011,0,3.7200043,0,3.3699979L0,2.6299762C0,2.2789936,0.28399658,1.9949968,0.63494873,1.9949965z M25.959961,0.84698585L25.959961,7.8689947 24.010986,5.9199876 22.584961,5.9199876 22.557007,5.9480033 25.742004,9.1330032 26.482971,9.8729944 30.408997,5.9480033 30.380005,5.9199876 28.954956,5.9199876 27.006958,7.8689947 27.006958,0.84698585z M26.513,0C29.541992,3.0415322E-08 32,2.4839804 32,5.5479784 32,8.611 29.541992,11.095011 26.513,11.095011 23.484009,11.095011 21.026978,8.611 21.026978,5.5479784 21.026978,2.4839804 23.484009,3.0415322E-08 26.513,0z" />
  </g>
</svg>