<?xml version="1.0" encoding="utf-8"?>
<svg xmlns="http://www.w3.org/2000/svg" height="48" width="48" viewBox="0 0 48 48">
  <g>
    <path id="path1" transform="rotate(0,24,24) translate(11,17.0912955072613) scale(0.812501791397834,0.812501791397834)  " fill="#000000" d="M23.505022,5.0030083C22.402036,5.0030083 21.504047,5.9010085 21.504047,7.0040087 21.504047,8.1070088 22.402036,9.0050095 23.505022,9.0050095 24.608009,9.0050095 25.505996,8.1070088 25.505996,7.0040087 25.505996,5.9010085 24.608009,5.0030083 23.505022,5.0030083z M8.4599948,4.5029963L9.4599948,4.5029963 9.4599948,7.0040044 11.961018,7.0040044 11.961018,8.0040044 9.4599948,8.0040044 9.4599948,10.504997 8.4599948,10.504997 8.4599948,8.0040044 5.958971,8.0040044 5.958971,7.0040044 8.4599948,7.0040044z M23.505022,4.0030083C25.160001,4.0030083 26.505985,5.3490084 26.505985,7.0040087 26.505985,8.6590089 25.160001,10.00501 23.505022,10.00501 21.850042,10.00501 20.50406,8.6590089 20.50406,7.0040087 20.50406,5.3490084 21.850042,4.0030083 23.505022,4.0030083z M23.503522,2.0004646C23.094465,1.9985668 22.623966,2.0712243 22.084909,2.2649778 21.4018,2.7189738 19.480896,3.6429716 17.449882,3.683972L17.447807,3.683972C17.355886,3.6859709,17.264822,3.6859709,17.172903,3.683972L14.819867,3.683972C14.770793,3.6849791 14.721843,3.6859709 14.67387,3.6859709 12.609775,3.6859709 10.616848,2.7299754 9.9178701,2.2649778 8.1927657,1.6449664 7.1698127,2.2659699 6.6158557,2.59997 6.4737649,2.6869761 6.3448582,2.764979 6.2027679,2.8199717 4.4067407,3.7419709 2.8668177,7.5419816 2.577754,8.4419774 1.4128328,12.663986 2.3408149,13.941989 2.3508244,13.95299L2.4608104,14.089999C2.6638141,14.397999 3.2788067,15.330999 5.1607719,14.886998 5.9458089,14.700992 6.7368279,14.295001 7.4488664,13.712999 11.391875,10.487986 12.359774,10.366984 12.723789,10.409984L19.279844,10.409984C19.643859,10.381984 20.610904,10.488994 24.554889,13.712999 25.265829,14.295001 26.057825,14.700992 26.841884,14.886998 28.722873,15.331991 29.338842,14.397999 29.541847,14.089999L29.707862,13.89699 29.707862,13.897997C29.692848,13.897997 30.570903,12.592987 29.412939,8.403983 29.136938,7.5419816 27.595916,3.7419709 25.800865,2.8199717 25.658897,2.764979 25.529869,2.6869761 25.386922,2.59997 25.005992,2.3696631 24.403448,2.0046398 23.503522,2.0004646z M23.522203,0.00011038294C24.976207,0.0094537277 25.963563,0.60947145 26.424892,0.88997526 26.460903,0.91196323 26.493862,0.93297464 26.522914,0.94896556L26.625942,0.99596305C29.573951,2.4239749 31.313947,7.7789816 31.329938,7.8329824 32.708852,12.815994 31.59996,14.73299 31.175886,15.246999 30.147928,16.760995 28.445896,17.323998 26.380823,16.833001 25.287923,16.575005 24.246904,16.045997 23.288892,15.26299 20.461856,12.950989 19.441833,12.490996 19.225889,12.410994L12.777866,12.410994C12.561801,12.490996 11.541777,12.950989 8.7148624,15.26299 7.7557526,16.045997 6.7158313,16.575005 5.6228099,16.833001 5.1368461,16.948998 4.6707797,17.006005 4.2287612,17.006005 2.7928429,17.006005 1.6147378,16.405005 0.82872399,15.246999 0.40477225,14.734989 -0.70717046,12.821991 0.66173121,7.8709768 0.6898075,7.7789816 2.4298044,2.4239749 5.3768373,0.99596305L5.4808412,0.94896556C5.5087958,0.93297464 5.5417547,0.91196323 5.5787421,0.88997526 6.2518406,0.48196969 8.0388341,-0.59904139 10.747829,0.43897031L11.011868,0.59096325C11.256864,0.78397227,12.917882,1.6439746,14.575847,1.6829761L17.183889,1.6829761 17.184866,1.6829761 17.397878,1.6829761C19.078794,1.6469653,20.745914,0.78496409,20.990911,0.59096325L21.255804,0.43897031C22.103967,0.11365705,22.861291,-0.0041362752,23.522203,0.00011038294z" />
  </g>
</svg>