<?xml version="1.0" encoding="utf-8"?>
<svg xmlns="http://www.w3.org/2000/svg" height="48" width="48" viewBox="0 0 48 48">
  <g>
    <path id="path1" transform="rotate(0,24,24) translate(12.0013954639435,11) scale(0.8125,0.8125)  " fill="#000000" d="M18.317017,20.399986L20.319015,24.632983 24.536009,25.629983 24.31201,26.572982 19.641015,25.469983 17.440018,20.814986z M14.849008,13.454988C14.080009,13.454988 13.45501,14.080989 13.45501,14.849991 13.45501,15.618993 14.080009,16.243995 14.849008,16.243995 15.618006,16.243995 16.243005,15.618993 16.243005,14.849991 16.243005,14.080989 15.618006,13.454988 14.849008,13.454988z M14.849008,12.121984C16.353004,12.121984 17.576003,13.344987 17.576003,14.849991 17.576003,16.353994 16.353004,17.576998 14.849008,17.576998 13.345011,17.576998 12.122013,16.353994 12.122013,14.849991 12.122013,13.344987 13.345011,12.121984 14.849008,12.121984z M14.849014,4.8499953C20.363022,4.8499951 24.849014,9.335989 24.849014,14.849998 24.849014,17.489984 23.82402,19.982996 21.964035,21.868007L21.757034,22.076991 20.338028,21.640986 20.922012,21.07101C22.61702,19.41601 23.550034,17.206994 23.550034,14.849998 23.550034,10.053 19.646011,6.1490068 14.849014,6.1490071 10.052017,6.1490068 6.1490326,10.053 6.1490328,14.849998 6.1490326,19.646997 10.052017,23.550014 14.849014,23.550014 15.595016,23.550014 16.337021,23.454005 17.054031,23.266994L17.340012,23.191005 18.30101,24.264003 17.553024,24.475001C16.673019,24.722987 15.764023,24.848996 14.849014,24.848996 9.3350372,24.848996 4.8490143,20.363001 4.8490145,14.849998 4.8490143,9.335989 9.3350372,4.8499951 14.849014,4.8499953z M2.677002,1.3340001C1.9560015,1.3340001,1.3690012,1.8500001,1.3690009,2.4860001L1.3690009,29.515C1.3690012,30.149001,1.9560015,30.667001,2.677002,30.667001L26.858025,30.667001C27.581024,30.667001,28.168026,30.149001,28.168026,29.515L28.168026,2.4860001C28.168026,1.8500001,27.581024,1.3340001,26.858025,1.3340001z M2.677002,0L26.858025,0C28.335026,0,29.535027,1.1150002,29.535027,2.4860001L29.535027,29.515C29.535027,30.884999,28.335026,32.000001,26.858025,32.000001L2.677002,32.000001C1.2010009,32.000001,0,30.884999,0,29.515L0,2.4860001C0,1.1150002,1.2010009,0,2.677002,0z" />
  </g>
</svg>