<?xml version="1.0" encoding="utf-8"?>
<svg xmlns="http://www.w3.org/2000/svg" height="48" width="48" viewBox="0 0 48 48">
  <g>
    <path id="path1" transform="rotate(0,24,24) translate(12.6400268651548,11) scale(0.8125,0.8125)  " fill="#000000" d="M14.104053,21.044994C14.839052,21.044994 15.343051,21.590994 15.343051,22.367994 15.343051,23.101994 14.860052,23.669992 14.083052,23.669992 13.348054,23.669992 12.844055,23.101994 12.844055,22.367994 12.844055,21.590994 13.369054,21.044994 14.104053,21.044994z M14.419052,9.0560064C16.834049,9.0560064 17.926046,10.547005 17.926046,12.142003 17.926046,13.570002 17.127048,14.599001 16.119049,15.796 15.196051,16.887999 14.860052,17.810999 14.923052,18.882998L14.944051,19.428997 13.307054,19.428997 13.264054,18.882998C13.139054,17.748999 13.516054,16.509998 14.567052,15.25 15.511051,14.138001 16.035049,13.318002 16.035049,12.374003 16.035049,11.303004 15.364051,10.589005 14.041053,10.568005 13.285054,10.568005 12.446055,10.820004 11.920056,11.219005L11.416056,9.8960056C12.110056,9.3920059,13.307054,9.0560064,14.419052,9.0560064z M13.866472,2.2019958C10.053391,6.7969971 4.1863386,8.7949982 2.10136,9.3840027 1.7763455,12.313995 1.3213246,24.153 13.981463,29.865997 26.234554,24.259995 26.195553,13.018005 25.890558,9.673996 25.874567,9.5119934 25.76757,9.3919983 25.602529,9.3509979 24.861557,9.1640015 18.34246,7.4129944 13.866472,2.2019958z M13.845476,0L13.860429,0C14.351461,0 14.821436,0.23100281 15.152432,0.63600159 19.227478,5.5890045 25.396536,7.2460022 26.085567,7.4169922 27.063541,7.6609955 27.781564,8.4949951 27.874582,9.4909973 28.215589,13.209 28.254591,25.806 14.485434,31.820999L14.078449,32 13.569472,31.863998C-1.178696,25.419006 -0.19168834,11.593994 0.15432293,8.8880005 0.23830787,8.2339935 0.70431515,7.6990051 1.3443349,7.5279999 3.0683481,7.0610046 8.9744031,5.1880035 12.549444,0.66299438 12.876412,0.24699402 13.349438,0.0059967041 13.845476,0z" />
  </g>
</svg>