<?xml version="1.0" encoding="utf-8"?>
<svg xmlns="http://www.w3.org/2000/svg" height="48" width="48" viewBox="0 0 48 48">
  <g>
    <path id="path1" transform="rotate(270,24,24) translate(11,12.3000003099442) scale(0.8125,0.8125)  " fill="#000000" d="M27.599976,20.199995L32,20.199995 32,28.699993 27.599976,28.699993z M27.599976,0L32,0 32,8.4999991 27.599976,8.4999991z M14.199982,0L23.799988,0 23.799988,8.4999991 14.199982,8.4999991C11,8.6999961 8.5,11.199995 8.5,14.400007 8.5,17.600004 11,20.100004 14.199982,20.300001L23.799988,20.300001 23.799988,28.799999 14.199982,28.799999C6.2999878,28.699993 0,22.300001 0,14.400007 0,6.4999991 6.2999878,0.100006 14.199982,0z" />
  </g>
</svg>