<?xml version="1.0" encoding="utf-8"?>
<svg xmlns="http://www.w3.org/2000/svg" height="48" width="48" viewBox="0 0 48 48">
  <g>
    <path id="path1" transform="rotate(0,24,24) translate(15.3874927163124,11) scale(0.8125,0.8125)  " fill="#000000" d="M0,15.1L2.7000022,15.1 2.7000022,16C2.7000022,20.400001 6.2000053,23.900001 10.600009,23.900001 15.000013,23.900001 18.500016,20.400001 18.500016,16L18.500016,15.2 21.200018,15.2 21.200018,16C21.200018,21.400001,17.100015,25.900001,11.80001,26.500001L11.80001,30.500001 13.600012,30.500001 13.600012,32.000001 7.7000069,32.000001 7.7000069,30.500001 9.2000079,30.500001 9.2000079,26.400001C4.0000033,25.8,0,21.400001,0,16z M10.600009,0C13.000011,0,14.900013,1.9000001,14.900013,4.3000004L14.900013,16.6C14.900013,19 13.000011,20.900001 10.600009,20.900001 8.2000071,20.900001 6.3000054,19 6.3000052,16.6L6.3000052,4.3000004C6.3000054,1.9000001,8.2000071,0,10.600009,0z" />
  </g>
</svg>