<?xml version="1.0" encoding="utf-8"?>
<svg xmlns="http://www.w3.org/2000/svg" height="48" width="48" viewBox="0 0 48 48">
  <g>
    <path id="path1" transform="rotate(0,24,24) translate(15.9765623183921,11) scale(0.812500096857559,0.812500096857559)  " fill="#000000" d="M5.6843419E-14,18.827006L1.9999999,18.827006C1.9999994,23.05601 5.5319818,26.495006 9.8749994,26.495006 14.218017,26.495006 17.749999,23.05601 17.749999,18.827006L19.749999,18.827006C19.749999,23.824813,15.856451,27.948998,10.883211,28.444998L10.873995,28.445802 10.873995,31.999997 8.8739952,31.999997 8.8739952,28.445626 8.8667892,28.444998C3.8935476,27.948998,-5.7994141E-07,23.824813,5.6843419E-14,18.827006z M8.1309761,12.447006L11.617977,12.447006 11.617977,13.447006 8.1309761,13.447006z M8.1309761,10.228993L11.617977,10.228993 11.617977,11.228993 8.1309761,11.228993z M8.1309761,8.0100031L11.617977,8.0100031 11.617977,9.0100031 8.1309761,9.0100031z M9.2699932,2C7.3069857,2,5.70898,3.5980015,5.70898,5.5610018L5.70898,18.880004C5.70898,20.843004,7.3069857,22.439005,9.2699932,22.439005L10.478998,22.439005C12.442005,22.439005,14.039009,20.843004,14.039009,18.880004L14.039009,5.5610018C14.039009,3.5980015,12.442005,2,10.478998,2z M9.2699932,0L10.478998,0C13.544008,0,16.039016,2.4940014,16.039016,5.5610018L16.039016,18.880004C16.039016,21.945005,13.544008,24.439005,10.478998,24.439005L9.2699932,24.439005C6.2039817,24.439005,3.708973,21.945005,3.708973,18.880004L3.708973,5.5610018C3.708973,2.4940014,6.2039817,0,9.2699932,0z" />
  </g>
</svg>