<?xml version="1.0" encoding="utf-8"?>
<svg xmlns="http://www.w3.org/2000/svg" height="48" width="48" viewBox="0 0 48 48">
  <g>
    <path id="path1" transform="rotate(0,24,24) translate(16.6468756198883,11) scale(0.8125,0.8125)  " fill="#000000" d="M17.000021,13.300003C17.599999,13.300003,18.099999,13.800003,18.099999,14.400009L18.099999,15C18.099999,19.400009,15.000019,23,10.900039,23.800003L10.800001,23.800003 10.800001,30 14.599995,30 14.599995,32 3.4000287,32 3.4000287,30 7.0000088,30 7.0000088,23.900009C3.0000038,23,-2.0903099E-07,19.400009,0,15.100006L0,14.900009 0,14.800003C-2.0903099E-07,14.200012 0.50000045,13.700012 1.099977,13.700012 1.7000142,13.700012 2.2000148,14.200012 2.2000146,14.800003L2.2000146,15.200012C2.2000148,19 5.2999947,22.100006 9.0999872,22.100006 12.900041,22.100006 16.000021,19 16.000021,15.200012L16.000021,14.600006C15.900045,13.800003,16.400046,13.300003,17.000021,13.300003z M8.9000361,0C11.90004,0,14.300006,2.4000092,14.300006,5.4000092L14.300006,14.900009C14.300006,17.900009 11.90004,20.300003 8.9000361,20.300003 5.9000318,20.300003 3.5000043,17.900009 3.5000043,14.900009L3.5000043,12.400009 9.2999994,12.400009C9.5999882,12.400009 9.900037,12.200012 9.900037,11.800003 9.900037,11.5 9.7000248,11.200012 9.2999994,11.200012L3.5000043,11.200012 3.5000043,10 9.2999994,10C9.5999882,10 9.900037,9.8000031 9.900037,9.4000092 9.900037,9.1000061 9.7000248,8.8000031 9.2999994,8.8000031L3.5000043,8.8000031 3.5000043,7.8000031 9.2999994,7.8000031C9.5999882,7.8000031 9.900037,7.6000061 9.900037,7.2000122 9.8000004,7.2000122 9.5999882,7 9.2999994,7L3.5000043,7 3.5000043,5.8000031 9.2999994,5.8000031C9.5999882,5.8000031 9.900037,5.6000061 9.900037,5.2000122 9.900037,4.9000092 9.7000248,4.6000061 9.2999994,4.6000061L3.5999798,4.6000061C3.9000294,2.1000061,6.20002,0,8.9000361,0z" />
  </g>
</svg>