<?xml version="1.0" encoding="utf-8"?>
<svg xmlns="http://www.w3.org/2000/svg" height="48" width="48" viewBox="0 0 48 48">
  <g>
    <path id="path1" transform="rotate(0,24,24) translate(11.8125007748604,11) scale(0.8125,0.8125)  " fill="#000000" d="M22.799991,21.100006L22.799991,25.299988 28.699996,25.299988 28.699996,21.100006z M1.1000051,21.100006L1.1000051,25.299988 6.9999959,25.299988 6.9999959,21.100006z M12.1,14.199982L12.1,18.399994 17.99999,18.399994 17.99999,14.199982z M24.299989,0L27.399995,0 27.399995,19.899994 29.999999,19.899994 29.999999,26.299988 27.399995,26.299988 27.399995,31.899994 24.299989,31.899994 24.299989,26.299988 21.7,26.299988 21.7,19.899994 24.299989,19.899994z M13.499993,0L16.599998,0 16.599998,13 19.200002,13 19.200002,19.399994 16.599998,19.399994 16.599998,32 13.499993,32 13.499993,19.5 10.900003,19.5 10.900003,13 13.499993,13z M2.6000042,0L5.7000091,0 5.7000091,19.899994 8.2999985,19.899994 8.2999985,26.299988 5.600003,26.299988 5.600003,32 2.6000042,32 2.6000042,26.399994 0,26.399994 0,20 2.6000042,20z" />
  </g>
</svg>