<?xml version="1.0" encoding="utf-8"?>
<svg xmlns="http://www.w3.org/2000/svg" height="48" width="48" viewBox="0 0 48 48">
  <g>
    <path id="path1" transform="rotate(0,24,24) translate(11,12.2289060950279) scale(0.8125,0.8125)  " fill="#000000" d="M6.2019653,19.191005L4.90802,22.680017 7.4309692,22.680017z M5.289978,15.839993L8.1439819,15.839993 11.955994,25.648004C12.161011,26.170007 12.344971,26.491998 12.505981,26.613 12.666992,26.734002 12.963013,26.792016 13.393982,26.786004L13.393982,28.544 7.3850098,28.544 7.3850098,26.786004 7.7479858,26.777002C8.0819702,26.777002 8.3170166,26.731988 8.4500122,26.645013 8.5839844,26.558007 8.651001,26.448999 8.651001,26.321008 8.651001,26.213006 8.5930176,25.986993 8.4779663,25.648004L8.098999,24.491998 4.2369995,24.491998 3.7600098,25.775995C3.6629639,26.049005 3.6140137,26.230005 3.6140137,26.312005 3.6140137,26.409997 3.6489868,26.49801 3.7199707,26.576013 3.7890015,26.655999 3.9019775,26.714013 4.0599976,26.749017 4.164978,26.774011 4.4500122,26.786004 4.9169922,26.786004L4.9169922,28.544 0,28.544 0,26.786004C0.315979,26.786004 0.54602051,26.758996 0.690979,26.705011 0.8369751,26.650018 0.95697021,26.568017 1.052002,26.460016 1.1450195,26.348993 1.25,26.145013 1.3649902,25.848016z M2.2039795,0.57601879L11.044983,0.57601879 11.044983,2.3340139 4.3269653,11.294004 5.1190186,11.294004C6.2119751,11.294004 7.0280151,11.193021 7.5679932,10.989011 8.1090088,10.786008 8.6069946,10.426999 9.065979,9.9110081 9.5239868,9.3950169 9.8800049,8.7620213 10.133972,8.0110152L11.800964,8.5760166 10.133972,13.279995 0.43701172,13.279995 0.43701172,11.512998 7.1809692,2.579009 6.125,2.579009C5.40802,2.5790093 4.8319702,2.6650076 4.3950195,2.8340139 3.9589844,3.0039968 3.5789795,3.2550039 3.2589722,3.5899954 2.9370117,3.9230029 2.4749756,4.6230151 1.875,5.6900008L0.27301025,4.9810169z M22.585999,0L25.658997,0 25.658997,23.094995 29.823975,18.930019 32,21.105006 24.130005,28.975 24.119019,28.961999 24.106995,28.975 16.240967,21.105006 18.411987,18.930019 22.585999,23.105005z" />
  </g>
</svg>