<?xml version="1.0" encoding="utf-8"?>
<svg xmlns="http://www.w3.org/2000/svg" height="48" width="48" viewBox="0 0 48 48">
  <g>
    <path id="path1" transform="rotate(0,24,24) translate(11,12.2289060950279) scale(0.8125,0.8125)  " fill="#000000" d="M2.2040405,15.842007L11.044983,15.842007 11.044983,17.600002 4.3280029,26.560022 5.1199951,26.560022C6.2120361,26.560022 7.0280151,26.459008 7.5679932,26.254998 8.1090088,26.051995 8.6069946,25.693017 9.06604,25.176995 9.5239868,24.661004 9.8800049,24.028009 10.135986,23.277002L11.801025,23.840997 10.134033,28.546014 0.43701172,28.546014 0.43701172,26.779016 7.1810303,17.844997 6.1240234,17.844997C5.4089966,17.844997 4.8330078,17.930995 4.3959961,18.100002 3.9589844,18.270015 3.5800171,18.521022 3.2590332,18.856014 2.9370117,19.188014 2.4760132,19.889003 1.8760376,20.956996L0.27301025,20.247005z M6.2020264,3.9270005L4.9089966,7.4160135 7.4320068,7.4160135z M5.2900391,0.57601879L8.1439819,0.57601879 11.955994,10.385007C12.163025,10.906003 12.346008,11.228025 12.507019,11.349027 12.66803,11.469999 12.963989,11.52902 13.39502,11.522001L13.39502,13.280026 7.3850098,13.280026 7.3850098,11.522001 7.7490234,11.512998C8.0830078,11.512998 8.3179932,11.469022 8.4509888,11.381009 8.5839844,11.294004 8.6520386,11.185025 8.6520386,11.058011 8.6520386,10.949002 8.5930176,10.72302 8.4790039,10.385007L8.098999,9.2280247 4.2369995,9.2280247 3.7609863,10.512021C3.6630249,10.785001 3.6149902,10.964017 3.6149902,11.049009 3.6149902,11.147001 3.6500244,11.234006 3.7200317,11.312009 3.7890015,11.392026 3.9030151,11.45001 4.0610352,11.486997 4.1650391,11.510007 4.4500122,11.522001 4.9180298,11.522001L4.9180298,13.280026 0,13.280026 0,11.522001C0.31500244,11.522001 0.54498291,11.495023 0.6920166,11.441007 0.83599854,11.386014 0.95800781,11.305021 1.052002,11.193998 1.1450195,11.085019 1.25,10.881009 1.3649902,10.584012z M22.585999,0L25.658997,0 25.658997,23.097009 29.824036,18.932002 32,21.105006 24.130005,28.975 24.119019,28.963006 24.106995,28.975 16.23999,21.105006 18.411987,18.932002 22.585999,23.105005z" />
  </g>
</svg>