<?xml version="1.0" encoding="utf-8"?>
<svg xmlns="http://www.w3.org/2000/svg" height="48" width="48" viewBox="0 0 48 48">
  <g>
    <path id="path1" transform="rotate(0,24,24) translate(11,12.7062503099442) scale(0.8125,0.8125)  " fill="#000000" d="M25.400009,21.400005L29.800003,21.400005C28.100006,24.100017 25.400009,26.200025 22.300003,27.200025 23,26.500013 23.600006,25.600019 24.199997,24.600017 24.699997,23.600017 25.100006,22.500011 25.400009,21.400005z M19,21.400005L24,21.400005C23.699997,22.299998 23.300003,23.200023 22.900009,23.900005 21.800003,26.000013 20.400009,27.3 18.900009,27.700025z M12.300003,21.400005L17.699997,21.400005 17.600006,27.8C16,27.600019 14.5,26.200025 13.300003,23.900005 13,23.100017 12.600006,22.299998 12.300003,21.400005z M26.5,14.700019L32,14.700019C31.900009,16.600013,31.400009,18.400003,30.600006,20.100015L25.900009,20.100015C26.199997,18.400003,26.5,16.600013,26.5,14.700019z M19.100006,14.700019L25.199997,14.700019C25.100006,16.600013,24.900009,18.400003,24.400009,20.100015L19,20.100015z M16.199997,14.700019L17.699997,14.700019 17.699997,20.100015 12,20.100015C11.900009,19.799997,11.900009,19.500009,11.800003,19.200021L15.5,15.500007z M25.900009,7.7999913L30.600006,7.7999913C31.400009,9.500004,31.900009,11.399999,32,13.4L26.5,13.4C26.5,11.399999,26.300003,9.500004,25.900009,7.7999913z M19.100006,7.7999913L24.5,7.7999913C24.900009,9.500004,25.199997,11.399999,25.199997,13.4L19.100006,13.4z M12.100006,7.7999913L17.800003,7.7999913 17.800003,13.4 11.300003,13.4C11.300003,11.299993,11.600006,9.3999979,12.100006,7.7999913z M22.5,0.6000061C25.600006,1.6000066,28.199997,3.6000077,29.900009,6.3999969L25.600006,6.3999969C25.300003,5.2999904 24.900009,4.2000138 24.400009,3.2999892 23.800003,2.2999887 23.199997,1.3999944 22.5,0.6000061z M14.199997,0.6000061C13.5,1.2999882 12.900009,2.2000131 12.300003,3.2000136 10.900009,5.8999965 10,9.8999988 9.9000092,14.000007L9.9000092,14.700019 14.5,14.700019 7.1999969,22.000011 0,14.600013 4.5,14.600013 4.5,13.900001C4.5,7.7000157,8.6000061,2.2999887,14.199997,0.6000061z M19.199997,0.1000061C20.600006,0.50000006 22,1.7999884 23.100006,3.8999953 23.5,4.7000143 23.800003,5.5000026 24.100006,6.3999969L19.100006,6.3999969z M17.900009,0L17.800003,6.3999969 12.400009,6.3999969C12.699997,5.5000026 13.100006,4.6000082 13.5,3.7999892 14.699997,1.5000005 16.300003,0.20001213 17.900009,0z" />
  </g>
</svg>