<?xml version="1.0" encoding="utf-8"?>
<svg xmlns="http://www.w3.org/2000/svg" height="48" width="48" viewBox="0 0 48 48">
  <g>
    <path id="path1" transform="rotate(0,24,24) translate(11,12.6249992251396) scale(0.8125,0.8125)  " fill="#000000" d="M17.000001,18.00001L17.000001,26.000001 30.000001,26.000001 30.000001,18.00001z M17.000001,8.000001L17.000001,16.00001 30.000001,16.00001 30.000001,8.000001z M2.000001,8.000001L2.000001,26.000001 15.000001,26.000001 15.000001,8.000001z M27.000034,3.0009851C27.552034,3.0009851 28.000034,3.4489851 28.000034,4.0009851 28.000034,4.5529852 27.552034,5.0009851 27.000034,5.0009851 26.448034,5.0009851 26.000034,4.5529852 26.000034,4.0009851 26.000034,3.4489851 26.448034,3.0009851 27.000034,3.0009851z M23.000035,3.0009851C23.552035,3.0009851 24.000034,3.4489851 24.000034,4.0009851 24.000034,4.5529852 23.552035,5.0009851 23.000035,5.0009851 22.448035,5.0009851 22.000035,4.5529852 22.000035,4.0009851 22.000035,3.4489851 22.448035,3.0009851 23.000035,3.0009851z M19.000034,3.0009851C19.552035,3.0009851 20.000035,3.4489851 20.000035,4.0009851 20.000035,4.5529852 19.552035,5.0009851 19.000034,5.0009851 18.448035,5.0009851 18.000035,4.5529852 18.000034,4.0009851 18.000035,3.4489851 18.448035,3.0009851 19.000034,3.0009851z M2.000001,2.000001L2.000001,6.000001 30.000001,6.000001 30.000001,2.000001z M0,0L32.000001,0 32.000001,28.000001 0,28.000001z" />
  </g>
</svg>