<?xml version="1.0" encoding="utf-8"?>
<svg xmlns="http://www.w3.org/2000/svg" height="48" width="48" viewBox="0 0 48 48">
  <g>
    <path id="path1" transform="rotate(0,24,24) translate(11,12.625) scale(0.8125,0.8125)  " fill="#000000" d="M2,8L2,26 30,26 30,8z M27,3C27.552,3 28,3.448 28,4 28,4.552 27.552,5 27,5 26.448,5 26,4.552 26,4 26,3.448 26.448,3 27,3z M23,3C23.552,3 24,3.448 24,4 24,4.552 23.552,5 23,5 22.448,5 22,4.552 22,4 22,3.448 22.448,3 23,3z M19,3C19.552,3 20,3.448 20,4 20,4.552 19.552,5 19,5 18.448,5 18,4.552 18,4 18,3.448 18.448,3 19,3z M2,2L2,6 30,6 30,2z M0,0L32,0 32,28 0,28z" />
  </g>
</svg>